HIERARCHY
ROOT Hip
{
	OFFSET 0 0 0
	CHANNELS 6 Xposition Yposition Zposition Zrotation Yrotation Xrotation
	JOINT ShoulderCenter
	{
		OFFSET 0 0.4363 0
		CHANNELS 3 Zrotation Yrotation Xrotation
		JOINT Head
		{
			OFFSET 0 0.1849 0
			CHANNELS 3 Zrotation Yrotation Xrotation
			End Site
			{
				OFFSET 0.0 0.0891 0.0
			}
		}
		JOINT ShoulderRight
		{
			OFFSET -0.14 0 0
			CHANNELS 3 Zrotation Yrotation Xrotation
			JOINT ElbowRight
			{
				OFFSET -0.25 0 0
				CHANNELS 3 Zrotation Yrotation Xrotation
				JOINT WristRight
				{
					OFFSET -0.23 0 0
					CHANNELS 3 Zrotation Yrotation Xrotation
					End Site
					{
						OFFSET -0.0832 0.0 0.0
					}
				}
			}
		}
		JOINT ShoulderLeft
		{
			OFFSET 0.14 0 0
			CHANNELS 3 Zrotation Yrotation Xrotation
			JOINT ElbowLeft
			{
				OFFSET 0.25 0 0
				CHANNELS 3 Zrotation Yrotation Xrotation
				JOINT WristLeft
				{
					OFFSET 0.23 0 0
					CHANNELS 3 Zrotation Yrotation Xrotation
					End Site
					{
						OFFSET 0.0832 0.0 0.0
					}
				}
			}
		}
	}
	JOINT HipRight
	{
		OFFSET -0.0952 0 0
		CHANNELS 3 Zrotation Yrotation Xrotation
		JOINT KneeRight
		{
			OFFSET 0 -0.3732 0
			CHANNELS 3 Zrotation Yrotation Xrotation
			JOINT AnkleRight
			{
				OFFSET 0 -0.346 0
				CHANNELS 3 Zrotation Yrotation Xrotation
				End Site
				{
					OFFSET 0.0 0.0 0.0891
				}
			}
		}
	}
	JOINT HipLeft
	{
		OFFSET 0.0952 0 0
		CHANNELS 3 Zrotation Yrotation Xrotation
		JOINT KneeLeft
		{
			OFFSET 0 -0.3732 0
			CHANNELS 3 Zrotation Yrotation Xrotation
			JOINT AnkleLeft
			{
				OFFSET 0 -0.346 0
				CHANNELS 3 Zrotation Yrotation Xrotation
				End Site
				{
					OFFSET 0.0 0.0 0.0891
				}
			}
		}
	}
}
MOTION
Frames: 16
Frame Time: 0.033333
0.31688 1.02504 -1.7694 -3.22325 -4.90382 -2.02938 -0.177543 0.602888 -0.00427701 0 0 0 2.14005 -1.827 17.9464 6.61824e-07 29.9654 -4.16695e-07 -2.13443e-07 -3.18055e-15 -1.70755e-06 8.67914 -13.9781 41.3057 -1.45062e-06 -25.8866 8.21768e-06 0 5.33609e-08 0 4.14723 -7.34532 13.8663 22.4733 -6.75299 12.4005 0 0 0 6.21384 -2.16354 12.8945 6.74632 2.01335 -8.29254 -6.67011e-09 -3.10601e-18 -5.33608e-08 
0.31688 1.02543 -1.76968 -3.21284 -4.90397 -1.98105 0.114008 0.60394 0.027414 0 0 -1.33402e-08 1.83901 -1.82959 17.868 6.02068e-07 29.9702 -2.49724e-06 0 0 0 8.31404 -13.9619 41.8039 6.38169e-06 -26.0971 -6.73744e-06 0 0 0 4.21387 -7.28992 13.7814 22.4046 -6.70029 12.3437 0 1.70755e-06 0 6.09304 -2.19095 12.8301 7.29066 2.0504 -8.20595 0 0 0 
0.31688 1.02543 -1.76967 -3.16519 -4.89543 -1.99349 0.0186323 0.0274358 0.00586572 -6.67011e-09 4.26887e-07 -2.48481e-17 1.71148 -0.81761 18.9569 -2.9428e-07 29.6266 5.56921e-07 0 0 0 8.395 -13.0803 42.1374 3.25151e-06 -26.5634 -7.67526e-07 0 0 0 4.22188 -7.25475 13.8144 22.3477 -6.63907 12.2381 0 0 0 5.95778 -2.28458 12.885 7.79964 2.23166 -8.6303 0 0 0 
0.316362 1.02543 -1.76967 -3.30289 -4.87043 -1.99313 0.154863 -0.0749863 0.017185 -2.13443e-07 3.72721e-16 2.00103e-07 1.95611 -0.781712 18.4939 6.16079e-07 28.9902 -2.30713e-06 0 0 0 8.33287 -12.9257 42.1609 5.5064e-07 -26.6593 -2.324e-06 0 0 0 4.61381 -7.18072 13.8026 22.1411 -6.56564 12.1085 0 0 0 6.09979 -2.28878 12.893 7.84394 2.23566 -8.62723 6.67011e-09 0 0 
0.316362 1.0251 -1.76968 -3.35405 -4.75419 -1.99034 -0.113895 -0.187344 -0.00734696 0 0 0 2.06963 -0.762467 19.5085 -1.47009e-06 28.8952 -3.99492e-06 0 0 0 8.55005 -12.9507 43.185 2.39436e-06 -26.2446 -2.74983e-06 0 0 0 4.74556 -7.19205 13.7562 22.0746 -6.56685 12.0334 0 0 0 6.17404 -2.27878 12.9233 7.77084 2.06726 -7.93421 6.67011e-09 1.2424e-17 -2.13443e-07 
0.315832 1.0251 -1.76968 -3.55224 -4.68454 -1.98282 0.111829 -0.0603436 0.0331416 0 -4.33557e-07 0 2.19405 -1.13903 19.1923 -5.01966e-07 29.01 -1.30112e-06 0 0 0 8.58356 -13.1172 43.6068 1.11076e-06 -26.2112 -2.88841e-06 0 0 0 5.37123 -7.12411 13.7315 21.725 -6.50956 11.86 0 0 0 6.44032 -2.33043 12.886 7.86509 2.09586 -7.87977 6.67011e-09 4.26887e-07 -2.13443e-07 
0.316362 1.02507 -1.76988 -3.84821 -3.45533 -1.93311 -0.146028 -1.07682 0.0930276 0 0 0 2.75974 -1.48638 18.8651 8.90352e-07 29.1637 4.69426e-06 0 0 0 9.50022 -13.6162 44.4622 1.51142e-06 -26.2252 -6.48849e-06 0 0 0 5.95946 -7.27578 13.5222 21.9072 -6.45659 11.3814 0 0 0 6.81428 -2.44733 12.4328 8.15467 2.30659 -8.22326 0 0 0 
0.316362 1.02507 -1.77195 -3.86147 -3.42705 -1.7274 -0.161881 -0.216699 0.36407 -3.33505e-09 3.33505e-09 -9.70628e-20 2.93664 -2.44427 17.8929 1.12344e-07 29.1476 8.56232e-07 -6.4033e-07 -1.70755e-06 -1.65419e-06 9.61968 -15.359 45.301 4.66106e-07 -25.6552 -9.73803e-06 0 0 0 5.89248 -7.2488 13.2794 21.9814 -6.43689 11.3722 0 0 0 6.84571 -2.41523 12.202 8.16116 2.29972 -8.20573 -8.53774e-07 -7.95139e-16 -1.06722e-07 
0.31609 1.025 -1.77206 -3.90478 -4.4048 -1.69948 -0.0902408 0.759283 0.347211 3.10601e-18 3.33505e-09 1.06722e-07 2.83456 -2.52999 18.3742 1.57485e-06 28.8223 1.84058e-06 2.48481e-17 -5.33608e-08 -5.33608e-08 9.62574 -15.2861 45.082 1.82196e-06 -25.7417 3.52469e-06 0 0 0 5.91432 -7.11276 12.8584 21.5224 -6.71876 12.1212 -2.13443e-07 1.70755e-06 4.26887e-07 6.51457 -2.52061 12.2509 8.9505 2.54103 -8.77425 0 0 0 
0.31609 1.02507 -1.77283 -3.95217 -3.21974 -1.4942 -0.0748776 -0.431841 0.147492 3.33505e-09 0 0 2.84166 -2.72805 18.308 1.78796e-06 28.9273 2.23152e-06 -2.13443e-07 0 0 9.27245 -15.2362 44.1448 3.88219e-07 -25.4232 6.03901e-06 0 0 0 6.28166 -7.13853 12.4595 21.7411 -6.56473 11.6355 0 0 0 6.86674 -2.3969 11.3525 8.71564 2.4401 -8.44577 0 0 0 
0.317381 1.0253 -1.77283 -4.23057 -1.81315 -1.69553 0.259056 -0.921789 0.453421 0 0 0 2.72984 -3.98398 18.0754 7.58601e-07 29.2786 -5.17476e-08 0 0 0 9.28372 -16.8863 44.5836 -1.18458e-07 -24.9084 -1.13404e-05 0 0 0 6.75464 -7.26523 13.1031 22.1663 -6.07421 10.4782 0 0 0 7.57172 -2.39697 11.2592 8.44995 2.33287 -8.0024 0 0 0 
0.31609 1.02597 -1.77283 -3.62667 -3.19728 -1.69706 -0.0333586 -0.115483 0.567204 0 0 0 2.27684 -3.46563 18.6211 -1.17452e-06 29.3709 -1.9558e-06 0 0 0 8.80323 -15.3858 42.641 -3.29415e-06 -25.6058 2.93744e-06 0 0 0 6.07945 -7.03112 12.5764 21.6163 -6.42725 11.5159 0 1.70755e-06 0 6.73795 -2.30959 11.4369 8.4658 2.21074 -7.83466 0 0 -1.06722e-07 
0.318444 1.0253 -1.7723 -3.32955 -2.7227 -1.54525 0.0458327 -0.620507 -0.791696 0 0 0 1.8214 -3.44854 19.817 1.86828e-06 29.3536 2.07864e-06 0 0 5.33608e-08 8.13957 -15.4731 43.7656 -1.04337e-07 -25.4911 4.61272e-07 0 0 0 5.76816 -7.09639 12.9773 21.8509 -6.1051 10.7501 0 0 0 6.45133 -2.36591 11.4658 8.48208 2.28168 -7.96398 0 0 0 
0.318444 1.0253 -1.77258 -3.33174 -2.72659 -1.47047 0.231814 -0.61748 -0.855425 0 -6.67011e-09 0 1.68401 -3.44656 19.6349 -2.0366e-06 29.3269 -6.0969e-06 0 0 0 7.86803 -15.4328 43.481 4.43488e-07 -25.5277 3.83886e-06 0 0 0 5.7946 -7.02553 12.8679 21.8352 -6.03669 10.7087 0 0 0 6.35393 -2.38494 11.7487 8.5335 2.38438 -8.42712 0 0 0 
0.317023 1.02514 -1.77258 -3.16833 -4.49461 -1.42466 -0.0158644 0.632784 0.109493 0 0 0 1.52444 -2.39701 19.6631 -7.53341e-07 28.7084 -1.65241e-06 0 0 0 8.29067 -14.4794 42.8745 1.8805e-06 -25.8684 -4.37387e-06 0 0 0 5.53395 -6.73312 12.3149 21.1781 -6.37597 11.8792 0 0 0 5.7826 -2.16267 11.4114 9.19373 1.78043 -6.40017 0 0 0 
0.316515 1.02514 -1.77261 -3.2614 -4.96352 -1.4161 0.0539169 0.199621 0.179467 0 0 0 2.04153 -0.773884 18.1881 -2.40194e-06 27.4658 -4.65876e-06 0 0 0 8.4151 -13.1024 43.2146 -5.06999e-07 -26.1972 4.06258e-06 0 0 0 5.65418 -6.64336 12.119 20.9277 -6.46351 12.1949 0 0 0 5.9115 -2.22381 11.9578 8.93303 1.97527 -7.21095 0 0 0 
